<svg width="32" height="32" viewBox="0 0 32 32" fill="none" xmlns="http://www.w3.org/2000/svg">
<g clip-path="url(#clip0_1_9)">
<path d="M20.6667 14.6667C21.7712 14.6667 22.6667 13.7713 22.6667 12.6667C22.6667 11.5621 21.7712 10.6667 20.6667 10.6667C19.5621 10.6667 18.6667 11.5621 18.6667 12.6667C18.6667 13.7713 19.5621 14.6667 20.6667 14.6667Z" fill="#ADADAD"/>
<path d="M11.3333 14.6667C12.4379 14.6667 13.3333 13.7713 13.3333 12.6667C13.3333 11.5621 12.4379 10.6667 11.3333 10.6667C10.2288 10.6667 9.33333 11.5621 9.33333 12.6667C9.33333 13.7713 10.2288 14.6667 11.3333 14.6667Z" fill="#ADADAD"/>
<path d="M15.9867 2.66669C8.62667 2.66669 2.66667 8.64002 2.66667 16C2.66667 23.36 8.62667 29.3334 15.9867 29.3334C23.36 29.3334 29.3333 23.36 29.3333 16C29.3333 8.64002 23.36 2.66669 15.9867 2.66669ZM16 26.6667C10.1067 26.6667 5.33333 21.8934 5.33333 16C5.33333 10.1067 10.1067 5.33335 16 5.33335C21.8933 5.33335 26.6667 10.1067 26.6667 16C26.6667 21.8934 21.8933 26.6667 16 26.6667ZM21.88 18.52C21.4133 18.2267 20.7867 18.3734 20.5067 18.84C19.52 20.4 17.84 21.3334 16 21.3334C14.16 21.3334 12.48 20.4 11.4933 18.8267C11.2 18.36 10.5867 18.2134 10.12 18.5067C9.65333 18.8 9.50667 19.4134 9.8 19.88C11.16 22.0534 13.4667 23.3334 16 23.3334C18.5333 23.3334 20.84 22.04 22.2 19.8934C22.4933 19.4267 22.3467 18.8134 21.88 18.52Z" fill="#ADADAD"/>
</g>
<defs>
<clipPath id="clip0_1_9">
<rect width="32" height="32" fill="white"/>
</clipPath>
</defs>
</svg>
